<svg data-v-0dd9719b="" version="1.0" xmlns="http://www.w3.org/2000/svg" xmlns:xlink="http://www.w3.org/1999/xlink" width="100%" height="100%" viewBox="0 0 340.000000 250.000000" preserveAspectRatio="xMidYMid meet" color-interpolation-filters="sRGB" style="margin: auto;">  <rect data-v-0dd9719b="" x="0" y="0" width="100%" height="100%" fill="url(#watermark)" fill-opacity="1" class="watermarklayer"></rect> <g data-v-0dd9719b="" fill="#DA03FF" class="pmspacesvg" transform="translate(113.71699905395508,67.26204299926758)"><!----> <polyline data-gra="graph-name" stroke="url(#2d1bcb3d-79ce-404e-9ec7-b7c916069621)" stroke-width="20" fill-opacity="0" stroke-opacity="0.5" points="0,115.47591400146484 0,0 112.56600189208984,0"></polyline> <polyline data-gra="graph-name" stroke="url(#2d1bcb3d-79ce-404e-9ec7-b7c916069621)" stroke-width="20" fill-opacity="0" stroke-opacity="0.5" points="0,115.47591400146484 112.56600189208984,115.47591400146484 112.56600189208984,0"></polyline> <g mask="url(#2eb897d9-68c5-4538-99d0-37747c1cefd8)"><g><rect data-gra="graph-name-bg" stroke-width="2" class="i-icon-bg" x="0" y="0" width="112.56600189208984" height="115.47591400146484" fill="url(#2d1bcb3d-79ce-404e-9ec7-b7c916069621)"></rect> <!----> <!----> </g> <g transform="translate(10,10)"><g data-gra="path-name" fill-rule="" class="tp-name" fill="#FFFFFF"><g transform="scale(0.6199999999999997)"><g><path d="M74.6-70.8L74.6 8.4 66.7 8.4 66.7-28.3 10.8-28.3 10.8 8.4 3 8.4 3-70.8 10.8-70.8 10.8-36.1 66.7-36.1 66.7-70.8 74.6-70.8ZM148.3 9.3L148.3 9.3 84.5 9.3Q82.9 9.3 81.75 8.15 80.6 7 80.6 5.3L80.6 5.3 80.6-70.8 88.5-70.8 88.5 1.4 144.4 1.4 144.4-70.8 152.3-70.8 152.3 5.3Q152.3 7 151.15 8.15 150 9.3 148.3 9.3L148.3 9.3 148.3 9.3Z" transform="translate(-3, 70.80000305175781)"></path></g> <!----> <!----> <!----> <!----> <!----> <!----> <g data-gra="path-name-1" fill="#DA03FF" transform="translate(0,83.10000610351562)"><g transform="scale(0.99374)"><path d="M77.06 7.83L77.06 7.83 66.7-45.14 46.15 5.64Q45.82 6.57 44.97 7.2 44.13 7.83 43.04 7.83L43.04 7.83Q42.03 7.83 41.14 7.2 40.26 6.57 39.92 5.64L39.92 5.64 19.37-45.14 9.01 7.83 2.53 6.65 14.99-58.2Q15.24-59.37 16.04-60.05 16.84-60.72 17.94-60.89L17.94-60.89Q19.12-61.06 20.04-60.47 20.97-59.88 21.39-58.78L21.39-58.78 43.04-4.88 64.68-58.78Q65.1-59.88 66.03-60.43 66.95-60.97 68.13-60.89L68.13-60.89Q69.23-60.81 70.03-60.09 70.83-59.37 71.08-58.2L71.08-58.2 83.55 6.65 77.06 7.83ZM152.77 5.14L147.8 9.52 120.69-21.14 93.57 9.52 88.6 5.14 116.22-26.11 88.6-57.44 93.57-61.82 120.69-31.16 147.8-61.82 152.77-57.44 125.07-26.11 152.77 5.14Z" transform="translate(-2.5299999713897705, 61.81999969482422)"></path></g></g></g></g> <!----></g></g></g><defs v-gra="od"><linearGradient x1="0" y1="1" x2="1" y2="0" id="2d1bcb3d-79ce-404e-9ec7-b7c916069621"><stop offset="0%" stop-color="#ff51f9"></stop><stop offset="50%" stop-color="#488eff"></stop><stop offset="100%" stop-color="#ffff39"></stop></linearGradient><filter id="42443b3f1de60f6b6fd3b6a9844b4764" filterUnits="objectBoundingBox"><feColorMatrix type="matrix" values="0 0 0 0 0.99609375  0 0 0 0 0.99609375  0 0 0 0 0.99609375  0 0 0 1 0"></feColorMatrix></filter></defs><mask id="2eb897d9-68c5-4538-99d0-37747c1cefd8"><g fill="white"><rect data-gra="graph-name-bg" stroke-width="2" class="i-icon-bg" x="0" y="0" width="112.56600189208984" height="115.47591400146484"></rect>   </g> <g transform="translate(10,10)" fill="black"><g data-gra="path-name" fill-rule="" class="tp-name"><g transform="scale(0.6199999999999997)"><g><path d="M74.6-70.8L74.6 8.4 66.7 8.4 66.7-28.3 10.8-28.3 10.8 8.4 3 8.4 3-70.8 10.8-70.8 10.8-36.1 66.7-36.1 66.7-70.8 74.6-70.8ZM148.3 9.3L148.3 9.3 84.5 9.3Q82.9 9.3 81.75 8.15 80.6 7 80.6 5.3L80.6 5.3 80.6-70.8 88.5-70.8 88.5 1.4 144.4 1.4 144.4-70.8 152.3-70.8 152.3 5.3Q152.3 7 151.15 8.15 150 9.3 148.3 9.3L148.3 9.3 148.3 9.3Z" transform="translate(-3, 70.80000305175781)"></path></g>       <g data-gra="path-name-1" transform="translate(0,83.10000610351562)"><g transform="scale(0.99374)"><path d="M77.06 7.83L77.06 7.83 66.7-45.14 46.15 5.64Q45.82 6.57 44.97 7.2 44.13 7.83 43.04 7.83L43.04 7.83Q42.03 7.83 41.14 7.2 40.26 6.57 39.92 5.64L39.92 5.64 19.37-45.14 9.01 7.83 2.53 6.65 14.99-58.2Q15.24-59.37 16.04-60.05 16.84-60.72 17.94-60.89L17.94-60.89Q19.12-61.06 20.04-60.47 20.97-59.88 21.39-58.78L21.39-58.78 43.04-4.88 64.68-58.78Q65.1-59.88 66.03-60.43 66.95-60.97 68.13-60.89L68.13-60.89Q69.23-60.81 70.03-60.09 70.83-59.37 71.08-58.2L71.08-58.2 83.55 6.65 77.06 7.83ZM152.77 5.14L147.8 9.52 120.69-21.14 93.57 9.52 88.6 5.14 116.22-26.11 88.6-57.44 93.57-61.82 120.69-31.16 147.8-61.82 152.77-57.44 125.07-26.11 152.77 5.14Z" transform="translate(-2.5299999713897705, 61.81999969482422)"></path></g></g></g></g> </g></mask></svg>
